{"title":"Cinderella Once Upon A Time In The West 2012 BRRip XViD juggs","uid":8259967,"size":740150117,"categoryP":"video","categoryS":"movies","magnet":"?xt=urn:btih:eaa7154e80fa78dc15df73a8d040711f491cc0e3&amp;dn=Cinderella+Once+Upon+A+Time+In+The+West+2012+BRRip+XViD+juggs&amp;tr=udp%3A%2F%2Ftracker.openbittorrent.com%3A80&amp;tr=udp%3A%2F%2Fopen.demonii.com%3A1337&amp;tr=udp%3A%2F%2Ftracker.coppersurfer.tk%3A6969&amp;tr=udp%3A%2F%2Fexodus.desync.com%3A6969","seeders":4,"leechers":0,"uploader":"juggs99","files":3,"time":1363360477,"description":"ormat : AVI\nFormat/Info : Audio Video Interleave\nFile size : 699 MiB\nDuration : 1h 21mn\nOverall bit rate : 1 203 Kbps\nWriting library : VirtualDub build 32842/release\n\nVideo\nID : 0\nFormat : MPEG-4 Visual\nFormat profile : Advanced Simple@L5\nFormat settings, BVOP : 2\nFormat settings, QPel : No\nFormat settings, GMC : No warppoints\nFormat settings, Matrix : Default (H.263)\nMuxing mode : Packed bitstream\nCodec ID : XVID\nCodec ID/Hint : XviD\nDuration : 1h 21mn\nBit rate : 1 065 Kbps\nWidth : 640 pixels\nHeight : 352 pixels\nDisplay aspect ratio : 16:9\nFrame rate : 23.976 fps\nColor space : YUV\nChroma subsampling : 4:2:0\nBit depth : 8 bits\nScan type : Progressive\nCompression mode : Lossy\nBits/(Pixel*Frame) : 0.197\nStream size : 619 MiB (89%)\nWriting library : XviD 64\n\nAudio\nID : 1\nFormat : MPEG Audio\nFormat version : Version 1\nFormat profile : Layer 3\nCodec ID : 55\nCodec ID/Hint : MP3\nDuration : 1h 21mn\nBit rate mode : Constant\nBit rate : 128 Kbps\nChannel(s) : 2 channels\nSampling rate : 44.1 KHz\nCompression mode : Lossy\nStream size : 74.4 MiB (11%)\nAlignment : Split accross interleaves\nInterleave, duration : 42 ms (1.00 video frame)\nInterleave, preload duration : 500 ms\nWriting library : LAME3.99r\nEncoding settings : -m s -V 4 -q 3 -lowpass 17 -b 128\n\nPlot\nThis modern take on Cinderella is set to the backdrop of the Wild West featuring a new cast of furry and feathered friends.\n\n &lt;a href=&quot;\nhttp://www.shotpix.com/images/95009463350912333141.png&quot; rel=&quot;nofollow&quot; target=&quot;_NEW&quot;&gt;\nhttp://www.shotpix.com/images/95009463350912333141.png&lt;/a&gt; &lt;a href=&quot;\nhttp://www.shotpix.com/images/23127814123213240688.png&quot; rel=&quot;nofollow&quot; target=&quot;_NEW&quot;&gt;\nhttp://www.shotpix.com/images/23127814123213240688.png&lt;/a&gt; &lt;a href=&quot;\nhttp://www.shotpix.com/images/44976521286793845214.png&quot; rel=&quot;nofollow&quot; target=&quot;_NEW&quot;&gt;\nhttp://www.shotpix.com/images/44976521286793845214.png&lt;/a&gt;","torrent":{"xt":"urn:btih:eaa7154e80fa78dc15df73a8d040711f491cc0e3","amp;dn":"Cinderella+Once+Upon+A+Time+In+The+West+2012+BRRip+XViD+juggs","amp;tr":["udp%3A%2F%2Ftracker.openbittorrent.com%3A80","udp%3A%2F%2Fopen.demonii.com%3A1337","udp%3A%2F%2Ftracker.coppersurfer.tk%3A6969","udp%3A%2F%2Fexodus.desync.com%3A6969"],"infoHash":"eaa7154e80fa78dc15df73a8d040711f491cc0e3","infoHashBuffer":{"type":"Buffer","data":[234,167,21,78,128,250,120,220,21,223,115,168,208,64,113,31,73,28,192,227]},"announce":[],"urlList":[]}}